# xmcd
#
# Track frame offsets:
#	150
#	20937
#	33193
#	48103
#	69596
#	87871
#	108148
#	120585
#	138397
#	162283
#	188280
#	207367
#
# Disc length: 2953 seconds
#
# Revision: 0
# Processed by: cddbd v1.5.2PL0 Copyright (c) Steve Scherf et al.
# Submitted via: dBpowerAMP V4.0
#
DISCID=960b870c
DTITLE=R.L. Burnside - Burnside On Burnside
DYEAR=2001
DGENRE=Blues
TTITLE0=Shake 'Em on Down
TTITLE1=Skinny Woman
TTITLE2=Miss Maybelle
TTITLE3=Rollin' and Tumblin'
TTITLE4=Long Haired Doney
TTITLE5=Walkin' Blues
TTITLE6=He Ain't Your Daddy
TTITLE7=Bad Luck and Trouble
TTITLE8=Jumper on the Line
TTITLE9=Goin' Down South
TTITLE10=Alice Mae
TTITLE11=Snake Drive
EXTD=
EXTT0=
EXTT1=
EXTT2=
EXTT3=
EXTT4=
EXTT5=
EXTT6=
EXTT7=
EXTT8=
EXTT9=
EXTT10=
EXTT11=
PLAYORDER=
